<svg t="1652275046614" class="icon" viewBox="0 0 1127 1024" version="1.1" xmlns="http://www.w3.org/2000/svg" p-id="2293" width="48" height="48"><path d="M500.246772 114.321909h627.518997v87.060949h-627.518997zM0 114.321909h260.461874v87.060949H0z" p-id="2294" fill="#ffffff"></path><path d="M507.347681 315.704766h-333.280196V0h333.280196z m-246.219247-87.060949h159.158297V87.060949h-159.158297zM500.246772 822.617142h627.518997v87.060949h-627.518997zM0 822.617142h260.461874v87.060949H0z" p-id="2295" fill="#ffffff"></path><path d="M507.347681 1024h-333.280196V708.295234h333.280196z m-246.219247-87.060949h159.158297V795.356183h-159.158297zM0 469.462564h627.518997v87.060949H0zM867.290292 469.462564h260.461873v87.060949H867.290292z" p-id="2296" fill="#ffffff"></path><path d="M953.739093 670.845422H620.377278V355.140656h333.361815z m-246.300866-87.060949h159.239917V442.201605H707.438227z" p-id="2297" fill="#ffffff"></path></svg>